<svg xmlns="http://www.w3.org/2000/svg" width="24" height="24" viewBox="0 0 24 24" fill="none">
  <path fill-rule="evenodd" clip-rule="evenodd"
    d="M13.3196 3.65319C12.8885 2.44893 11.1115 2.44894 10.6804 3.65319L10.507 4.13765C10.2057 4.97959 9.14608 5.30954 8.38582 4.79816L7.94851 4.50392C6.86114 3.77247 5.42351 4.77357 5.81329 5.99066L5.97013 6.48028C6.2427 7.33119 5.5878 8.19501 4.65919 8.20952L4.12487 8.21788C2.79666 8.23864 2.24744 9.85845 3.30929 10.6235L3.73645 10.9312C4.47886 11.4661 4.47886 12.5338 3.73645 13.0687L3.30929 13.3765C2.24744 14.1415 2.79666 15.7613 4.12487 15.7821L4.65919 15.7904C5.5878 15.8049 6.2427 16.6688 5.97013 17.5197L5.81329 18.0093C5.42351 19.2264 6.86114 20.2275 7.94851 19.496L8.38582 19.2018C9.14608 18.6904 10.2057 19.0204 10.507 19.8623L10.6804 20.3468C11.1115 21.551 12.8885 21.551 13.3196 20.3468L13.493 19.8623C13.7943 19.0204 14.8539 18.6904 15.6142 19.2018L16.0515 19.496C17.1389 20.2275 18.5765 19.2264 18.1867 18.0093L18.0299 17.5197C17.7573 16.6688 18.4122 15.8049 19.3408 15.7904L19.8751 15.7821C21.2033 15.7613 21.7526 14.1415 20.6907 13.3765L20.2636 13.0687C19.5211 12.5338 19.5211 11.4661 20.2636 10.9312L20.6907 10.6235C21.7526 9.85844 21.2033 8.23864 19.8751 8.21788L19.3408 8.20952C18.4122 8.19501 17.7573 7.33119 18.0299 6.48028L18.1867 5.99066C18.5765 4.77357 17.1389 3.77247 16.0515 4.50392L15.6142 4.79816C14.8539 5.30954 13.7943 4.97959 13.493 4.13764L13.3196 3.65319ZM12 15.7C14.0434 15.7 15.7 14.0434 15.7 12C15.7 9.95653 14.0434 8.29999 12 8.29999C9.95658 8.29999 8.30001 9.95653 8.30001 12C8.30001 14.0434 9.95658 15.7 12 15.7Z"
    stroke="#A1A9B8" stroke-width="1.5" />
</svg>
